<svg xmlns="http://www.w3.org/2000/svg" version="1.1" width="600px" height="600px" viewBox="0 0 200 200" style="overflow:hidden!important;"><g id="svga-group-wrapper"><g id="svga-group-backs-single"><path id="SvgjsPath7007" d="M0 0h200v200H0V0z" fill="#ecf0f1" stroke-width="none" opacity="1"></path></g><g id="svga-group-humanwrap-move" transform="matrix(1,0,0,1,0,0)"><g id="svga-group-humanwrap"><g id="svga-group-hair-back-move" transform="matrix(1,0,0,1,0,0)"><g id="svga-group-hair-back"><path id="SvgjsPath12498" d="m85.2 45-21 15.4-8 74.7 4.8 29.8 16.2 3.7 49.5.5.5-17.6 1.3 17.3 12-3.2 5.3-4-2.9-76.6-4.2-18.9s-14.6-21-15.4-20.7-38.1-.4-38.1-.4z" fill="#221b23" stroke-width="none" opacity="1"></path></g></g><g id="svga-group-humanbody-back"><path id="SvgjsPath7074" d="m168.2 200-4.6-14.2-34.9-13.4-10.8-9.7-1.4-50.5h-33l-1.4 50.5-10.8 9.7-34.9 13.4-4.6 14.2-3 20h142.4z" fill="#f3d4cf" stroke-width="none" opacity="1" stroke="none"></path><path id="SvgjsPath7075" d="m83.5 112.2-1.4 50.5-10.8 9.7-34.9 13.4-4.6 14.2-3 20H39v-20l1.7-13.3 32.1-12.9 14.1-9.5 2-52.1z" fill="#d4958a" stroke-width="none" opacity="1" stroke="none"></path></g><g id="svga-group-chinshadow-single"><path id="SvgjsPath7579" d="m117.5 150.3-1-38.2h-33l-1.1 42.1c2.9 2 6 3.9 9.3 5.8l5.5 1.1 5.5-1.1c5.6-3.1 10.6-6.5 14.8-9.7z" fill="#c5796d" stroke-width="none" opacity="1" stroke="none"></path></g><g id="svga-group-humanbody-front"></g><g id="svga-group-clothes-single"><path id="SvgjsPath12893" d="m100 211.8-21.1-19.4 2.6 27.6h37l2.6-27.6z" fill="#ededed" stroke-width="none" opacity="1"></path><path id="SvgjsPath12894" d="m82.2 159.1-4.2 3.8-14.9 9.2.5.5-26 11.2-3 .7-4.2 15.6-2.8 19.9h56.5l-4.8-53.4 2.8-3.9z" fill="#09aac5" stroke-width="none" opacity="1"></path><path id="SvgjsPath12895" d="m117.8 159.1 4.2 3.8 14.9 9.2-.5.5 26 11.2 3 .7 4.2 15.6 2.8 19.9h-56.5l4.8-53.4-2.8-3.9z" fill="#09aac5" stroke-width="none" opacity="1"></path><path id="SvgjsPath12896" d="m63.1 172.1.5.5-26 11.2-3 .7-4.2 15.6-2.8 19.9H33l1.1-19.6 2.1-11.6 1.8-.4 41.3-19 .1-2.7 2.8-3.9.1-3.6-4.2 3.7-15 9.2zm73.8 0-.5.5 26 11.2 3 .7 4.2 15.6 2.8 19.9H167l-1.1-19.6-2.1-11.6-1.8-.4-41.3-19-.1-2.7-2.8-3.9-.1-3.6 4.2 3.7 15 9.2z" fill="#009cb6" stroke-width="none" opacity="1"></path><path id="SvgjsPath12897" d="m74.4 171.6-9.9 10.9 8.4 37.6h-1.6l-8.8-37.6 7.2-6.9-6.2-3 6.9 1.9 4-2.9zm7.8-12.5-5 8.6 6.5 52.3h.4l-4.8-53.4 2.8-3.9.1-3.6zm-38.5 40-7.1-13.8 6 15.4 2.3 19.3h1.9l-3.1-20.9zm81.9-27.5 9.9 10.9-8.4 37.6h1.6l8.8-37.6-7.2-6.9 6.2-3-6.9 1.9-4-2.9zm-7.8-12.5 5 8.6-6.5 52.3h-.4l4.8-53.4-2.8-3.9-.1-3.6zm38.5 40 7.1-13.8-6 15.4-2.3 19.3h-1.9l3.1-20.9z" fill="#008fa6" stroke-width="none" opacity="1"></path><path id="SvgjsPath12898" d="m73.7 173.4-8.2 9.4 8.5 36.6-5.9-36.6 5.6-9.4zm52.6 0 8.2 9.4-8.5 36.6 5.9-36.6-5.6-9.4z" fill="#1fbad4" stroke-width="none" opacity="1"></path></g><g id="svga-group-head" transform="matrix(1,0,0,1,0,0)"><g id="svga-group-ears-left-move" transform="matrix(1,0,0,1,0,0)"><g id="svga-group-ears-left"><path id="SvgjsPath7024" d="M64.1 91.8s-6-.7-10.6-3.7c0 0-3.5 9.4-4 14.4 0 0 6.7 13 10 18.5 0 0 5.2-.7 6.3-1.4l1.4-8.4-3.1-19.4z" fill="#f3d4cf" stroke-width="none" opacity="1" stroke="none"></path><path id="SvgjsPath7025" d="M54.3 90c-.2-.4-.8-1.9-.8-1.9 5.2.4 10.7 1.4 10.7 1.4l3 21.7-1.4 8.4c-1.1.7-6.3 1.4-6.3 1.4-.6-1-1.3-2.4-2.1-3.7l2.6 1 3-1.6s.7-11.2.5-11.5c-.1-.3-9-14.8-9.2-15.2z" fill="#e4b3ab" stroke-width="none" opacity="1" stroke="none"></path><path id="SvgjsPath7026" d="m51.3 100.9 2.8-5.5 5.2 6.8 2.2 9.5-1.4 1.9-4.3-7.6 1-4.7-2.6-4z" fill="#d4958a" stroke-width="none" opacity="1" stroke="none"></path></g></g><g id="svga-group-ears-right-move" transform="matrix(1,0,0,1,0,0)"><g id="svga-group-ears-right"><path id="SvgjsPath7027" d="M135.9 91.8s6-.7 10.6-3.7c0 0 3.5 9.4 4 14.4 0 0-6.7 13-10 18.5 0 0-5.2-.7-6.3-1.4l-1.4-8.4 3.1-19.4z" fill="#f3d4cf" stroke-width="none" opacity="1" stroke="none"></path><path id="SvgjsPath7028" d="M145.7 90c.2-.4.8-1.9.8-1.9-5.2.4-10.7 1.4-10.7 1.4l-3 21.73 1.4 8.37c1.1.7 6.3 1.4 6.3 1.4.6-1 1.3-2.4 2.1-3.7l-2.6 1-3-1.6s-.7-11.2-.5-11.5c.1-.3 9-14.8 9.2-15.2z" fill="#e4b3ab" stroke-width="none" opacity="1" stroke="none"></path><path id="SvgjsPath7029" d="m148.7 100.9-2.8-5.5-5.2 6.8-2.2 9.5 1.4 1.9 4.3-7.6-1-4.7 2.6-4z" fill="#d4958a" stroke-width="none" opacity="1" stroke="none"></path></g></g><g id="svga-group-faceshape-wrap"><g id="svga-group-faceshape-single"><path id="SvgjsPath7569" d="M136.8 61c-6.7-11.2-19-18.9-19-18.9-7-1.5-17.8-2.2-17.8-2.2s-10.8.8-17.8 2.2c0 0-12.4 7.6-19 18.9 0 0-5 14-5.2 23.9 0 0 1.4 33.9 4.4 42.6 0 0 12.2 14.4 32.1 25.5l5.5 1.1 5.5-1.1c19.9-11.1 32.1-25.5 32.1-25.5 3-8.7 4.4-42.6 4.4-42.6-.3-9.8-5.2-23.9-5.2-23.9z" fill="#f3d4cf" stroke-width="none" opacity="1" stroke="none"></path><path id="SvgjsPath7570" d="M83.9 44.1c8.8-3 33.9-2 33.9-2-7-1.5-17.8-2.2-17.8-2.2s-10.8.8-17.8 2.2c0 0-12.4 7.6-19 18.9 0 0-5 14-5.2 23.9 0 0 1.4 33.9 4.4 42.6 0 0 8.6 10.2 23.2 20-8.6-8.6-16.4-24.8-16.4-24.8-2.1-9.7-7.4-39-7.4-39 0-3.5 3.9-20.6 3.9-20.6 2-3.9 18.2-19 18.2-19z" fill="#d4958a" stroke-width="none" opacity="1" stroke="none"></path></g></g><g id="svga-group-mouth-single-move" transform="matrix(1,0,0,1,0,0)"><g id="svga-group-mouth-single"><path id="SvgjsPath8373" d="m88.39 131.06 1.41-.6 4.5-4.05 11.49-.19 5.1 5.01 1.71.55-6.12 1.93-5.8-1.49-7.02 1.54z" fill="#d26d79" stroke-width="none" opacity="1" transform="translate(0 3)" stroke="none"></path><path id="SvgjsPath8374" d="m88.36 130.89 1.33 1.43 3.44 5.3s7.08 2.26 7.19 2.22c.12-.04 7.94-2.48 7.94-2.48l3.32-4.63 1.56-1.24-2.97.83-3.87 1.24-6.02-1.5-6.62 1.59-5.3-2.76z" fill="#da7c87" stroke-width="none" opacity="1" transform="translate(0 3)" stroke="none"></path><path id="SvgjsPath8375" d="m87.77 129.68-.41 1 6.28 3.28 6.44-1.25 6.34 1.25 8.32-2.52-.7-1.23-7.66 2.93-6.24-1.29-6.31 1.33z" fill="#cb5f6c" stroke-width="none" opacity="1" transform="translate(0 3)" stroke="none"></path><path id="SvgjsPath8376" d="m110.19 133.78-2.04 3.06-7.27 2.28 6.85-2.7z" fill="#f9bfc6" stroke-width="none" opacity="1" transform="translate(0 3)" stroke="none"></path><path id="SvgjsPath8377" d="m90.37 130.48 4.26-3.61 6.85-.24-6.43.9z" fill="#e28c96" stroke-width="none" opacity="1" transform="translate(0 3)" stroke="none"></path><path id="SvgjsPath8378" d="m94.01 132.77 5.87-1.53 6.46 1.53 1.38-.44-1.46.15-6.38-1.82z" fill="#e28c96" stroke-width="none" opacity="1" transform="translate(0 3)" stroke="none"></path></g></g><g id="svga-group-eyes-left-move" transform="matrix(1,0,0,1,0,0)"><g id="svga-group-eyes-left"><g id="svga-group-eyesback-left"><path id="SvgjsPath9421" d="m91.1 104.4-2.5-6.8-10.9-3.1-7.2 2.1 5.5 8.1z" fill="#ffffff" stroke-width="none" opacity="1"></path></g><g id="svga-group-eyesiriswrapper-left" transform="matrix(1,0,0,1,0,0)"><g id="svga-group-eyesiriscontrol-left" transform="matrix(1,0,0,1,0,0)"><g id="svga-group-eyesiris-left"><path id="SvgjsPath9923" d="m78.1 102.2-.7-4.4 3.5-3 4.2 1.6.8 4.5-3.5 2.9z" fill="#4e60a3" stroke-width="none" opacity="1"></path><path id="SvgjsPath9924" d="m80.9 95.3 3.9 1.4.7 4.1-3.2 2.6-3.9-1.4-.7-4.1 3.2-2.6m-.1-.9L77 97.6l.9 4.9 4.7 1.7 3.8-3.2-.9-4.9-4.7-1.7z" fill="#384b94" stroke-width="none" opacity="1"></path><path id="SvgjsPath9925" d="m80.8 94.7 4.5 1.6.8 4.7-3.7 3.1-4.4-1.6-.8-4.7 3.6-3.1m-.1-.6-4.1 3.4.9 5.2 5 1.8 4.1-3.4-.9-5.2-5-1.8z" fill="#253984" stroke-width="none" opacity="1"></path><path id="SvgjsPath9926" d="m78.9 100.2.6-2.8 2.7-.8 2.1 1.8-.5 2.8-2.7.9z" fill="#000000" stroke-width="none" opacity="1"></path><path id="SvgjsPath9927" d="M79.8 97h1.6v1.6h-1.6V97zm2.2 4h.9v.9H82v-.9z" fill="#ffffff" stroke-width="none" opacity="1"></path></g></g></g><g id="svga-group-eyesfront-left"><path id="SvgjsPath9429" d="M68 94.5v11.1l7.7 7.9h10.9l7.7-7.9V94.5l-7.7-7.9H75.7L68 94.5zm2.5 2.1 7.1-2.1 11 3.1 2.5 6.8-15.1.3-5.5-8.1z" fill="#f3d4cf" stroke-width="none" opacity="1"></path><path id="SvgjsPath9430" d="m71.4 96.9 4.9 7.7 7.2-.1-7.5.4-5.9-7.9z" fill="#d4958a" stroke-width="none" opacity="1"></path><path id="SvgjsPath9431" d="m91.9 105.9-2.5-9-11-4.6L65 94.7l4.1 2.6h2.5l7-2.5 9.9 2.9 2.2 6.6z" fill="#000000" stroke-width="none" opacity="1"></path></g></g></g><g id="svga-group-eyes-right-move" transform="matrix(1,0,0,1,0,0)"><g id="svga-group-eyes-right"><g id="svga-group-eyesback-right"><path id="SvgjsPath9422" d="m108.9 104.4 2.5-6.8 10.9-3.1 7.2 2.1-5.5 8.1z" fill="#ffffff" stroke-width="none" opacity="1"></path></g><g id="svga-group-eyesiriswrapper-right" transform="matrix(1,0,0,1,0,0)"><g id="svga-group-eyesiriscontrol-right" transform="matrix(1,0,0,1,0,0)"><g id="svga-group-eyesiris-right"><path id="SvgjsPath9928" d="m114.9 102.2-.8-4.4 3.5-3 4.3 1.6.7 4.5-3.5 2.9z" fill="#4e60a3" stroke-width="none" opacity="1"></path><path id="SvgjsPath9929" d="m117.7 95.3 3.9 1.4.7 4.1-3.2 2.6-3.9-1.4-.7-4.1 3.2-2.6m-.2-.9-3.8 3.2.9 4.9 4.7 1.7 3.8-3.2-.9-4.9-4.7-1.7z" fill="#384b94" stroke-width="none" opacity="1"></path><path id="SvgjsPath9930" d="m117.6 94.7 4.5 1.6.8 4.7-3.6 3-4.5-1.6-.8-4.7 3.6-3m-.2-.6-4.1 3.4.9 5.2 5 1.8 4.1-3.4-.9-5.2-5-1.8z" fill="#253984" stroke-width="none" opacity="1"></path><path id="SvgjsPath9931" d="m115.7 100.2.5-2.8 2.7-.8 2.2 1.8-.6 2.8-2.7.9z" fill="#000000" stroke-width="none" opacity="1"></path><path id="SvgjsPath9932" d="M116.6 97h1.6v1.6h-1.6V97zm2.1 4h.9v.9h-.9v-.9z" fill="#ffffff" stroke-width="none" opacity="1"></path></g></g></g><g id="svga-group-eyesfront-right"><path id="SvgjsPath9432" d="M124.3 86.6h-10.9l-7.7 7.9v11.1l7.7 7.9h10.9l7.7-7.9V94.5l-7.7-7.9zm-.3 18.1-15.1-.3 2.5-6.8 11-3.1 7.1 2.1-5.5 8.1z" fill="#f3d4cf" stroke-width="none" opacity="1"></path><path id="SvgjsPath9435" d="m128.6 96.9-4.9 7.7-7.2-.1 7.5.4 5.9-7.9z" fill="#d4958a" stroke-width="none" opacity="1"></path><path id="SvgjsPath9436" d="m108.1 105.9 2.5-9 11-4.6 13.4 2.4-4.1 2.6h-2.5l-7-2.5-9.9 2.9-2.2 6.6z" fill="#000000" stroke-width="none" opacity="1"></path></g></g></g><g id="svga-group-facehighlight-single"></g><g id="svga-group-eyebrows-left-move" transform="matrix(1,0,0,1,0,0)"><g id="svga-group-eyebrows-left-rotate" transform="matrix(1,1.7453292144864463e-9,-1.7453292144864463e-9,1,1.5158184396568686e-7,-1.3953906830010965e-7)"><g id="svga-group-eyebrows-left"><path id="SvgjsPath10254" d="m93.2 89.1-.6 1.9-2.1 1.2-11.6-5.5-7.1-.1-4.9 3.1 4.3-4.7 7.5-1.4 9.1 2.7z" fill="#2a232b" stroke-width="none" opacity="1"></path><path id="SvgjsPath10255" d="m90 87.5.8.4-.4 2.5-.4-2.9zm-5.5-2.2 1.4 2.4-1.9-2.5.5.1zm3.3 1 .3.2c.2 1.3.5 3.4.5 3.4l-1.4-3.7.6.1zm-5.6-1.6.7 1.3-2-1.7 1.3.4zM71 86.3c-.1 0 0 0 0 0zm-1.7.7c.7-.3 1.3-.6 1.6-.7-.3.2-1.4 1-2.5 1.7l.9-1zm6-2.7 1.6 1.6-2.1-1.5.5-.1zm-4.1.7 1.5-.3 2.3.7c0 .1-2.2-.2-3.8-.4z" fill="#3a353a" stroke-width="none" opacity="1"></path></g></g></g><g id="svga-group-eyebrows-right-move" transform="matrix(1,0,0,1,0,0)"><g id="svga-group-eyebrows-right-rotate" transform="matrix(1,1.7453292144864463e-9,-1.7453292144864463e-9,1,1.5158184396568686e-7,-2.095267745971796e-7)"><g id="svga-group-eyebrows-right"><path id="SvgjsPath10256" d="m106.8 89.1.6 1.9 2.1 1.2 11.6-5.5 7.1-.1 4.9 3.1-4.3-4.7-7.5-1.4-9.1 2.7z" fill="#2a232b" stroke-width="none" opacity="1"></path><path id="SvgjsPath10257" d="m110 87.5-.8.4.4 2.5.4-2.9zm5.5-2.2-1.4 2.4 1.9-2.5-.5.1zm-3.3 1-.3.2c-.2 1.3-.5 3.4-.5 3.4l1.4-3.7-.6.1zm5.6-1.6-.7 1.3 2-1.7-1.3.4zm11.2 1.6c.1 0 0 0 0 0zm1.7.7c-.7-.3-1.4-.6-1.6-.7.3.2 1.4 1 2.5 1.7l-.9-1zm-6-2.7-1.6 1.6 2.1-1.5-.5-.1zm4.1.7-1.5-.3-2.3.7c0 .1 2.2-.2 3.8-.4z" fill="#3a353a" stroke-width="none" opacity="1"></path></g></g></g><g id="svga-group-nose-single-move" transform="matrix(1,0,0,1,0,0)"><g id="svga-group-nose-single"><path id="SvgjsPath7971" d="m103.35 108.14-.8-.31 5.16 8.97-1.6 2.28-1.38-.95.22-1.02-1.09.47-1.6 3.15-2.1.08-2.5-.08-1.6-3.15-1.08-.47.21 1.02-1.38.95-1.59-2.28 5.15-8.97.33-10.76-1.13 11.07-5.22 8.81 2.54 3.31 2.17-1.58 1.24 2.76h5.33l1.23-2.76 2.18 1.58 2.54-3.31z" fill="#d4958a" stroke-width="none" opacity="1" transform="translate(0 2)" stroke="none"></path><path id="SvgjsPath7972" d="m97.27 117.21 1.3.61 3.06.08 1.53-.69-.58-2.35-.98-3.1-2.03 4.07z" fill="#fbe5e2" stroke-width="none" opacity="1" transform="translate(0 2)" stroke="none"></path></g></g><g id="svga-group-hair-front"><path id="SvgjsPath12494" d="m147.9 115.1-3.5-46.3-10.3-19.7-14.1-11-10.3-2.1-9.9 2.8-9.8-2.9L76.7 38 61.2 55.2l-7.6 25.2-1.8 49.7 2.9 30.6 2.1 2.7-2.8-26.1 4.4 26.9 8.5 2.9-4.5-25.2 6.6 25.3 8 1.3-7.1-37.5-3-45.2 10.2-29.5 9.1-3.4 14.9 5.1 13.6-5.3 9 5.4 8.9 27.4.4 41.2-2.6 42.3 3.2-1.6 5.1-15.9-2.7 16.2 5.3-2.6 1.4-22.6 1.3 22 5.1-5z" fill="#2a232b" stroke-width="none" opacity="1"></path><path id="SvgjsPath12495" d="m81.3 49.2-6.9 6.4L65.6 85l3.2 29-2-28.1 10.1-29.5 9-3.5 14.9 5.1-7.1-4.2-12.4-4.6zm43.8 5.6-12.6-6.4-7 6.1-4.7 3.5 13.6-5.3 9 5.3 9 27.4.3 22.6 1.6-25.8-9.2-27.4zm-25.9-2.5-18.9-7.8L68.2 55l-5.5 31.5 4.4 57.9 3.7 19.1-5.1-20.2-5.3-58.6 6.4-31.3 13.8-10.8 18.6 9.7zm-.6-2.3 9.4-7.6 17.5 5 12.9 20.9 1.8 22.1-.5 46.7-1.2 12v-13.8l-.7-49.2-2.1-18.4-11.5-19.1L108 44l-9.4 6zM54.7 86.1l2.3 46 5.7 26.9-7.3-28.3-.7-44.6zm89.6 6.2 2.1 47.4-.4 18.4 2.1-19.3-3.8-46.5z" fill="#3a353a" stroke-width="none" opacity="1"></path><path id="SvgjsPath12496" d="m99 53.4 9-8 16.3 4.1 11 19.1 2.5 17.5-3 50.1.7-51.5-2.5-16.1-11-17.9-13.6-3.2-9.4 5.9zm-3.7-.9-14-6.2-11.5 9.2-7.1 31 5.1 43-3.2-43.4L72.2 56l10.3-7.1 12.8 3.6z" fill="#221b23" stroke-width="none" opacity="1"></path><path id="SvgjsPath12497" d="m98.1 44.9-17-5.1-12.2 9.4 12.9-7.6 16.3 3.3zm1.8-.7 10.1-5.5 13.6 4.8-13.8-2.3-9.9 3zm-.9-3.4-8.7-3-4.6.7L99 40.8zM59 71.3l-2.5 11 2.8 48L62 141l-.9-12.4-2.5-47.1.4-10.2zm81.9 9.2 1.6 31.7-.7 25.3 2.3-26.2-3.2-30.8z" fill="#322c33" stroke-width="none" opacity="1"></path></g><g id="svga-group-glasses-single-move" transform="matrix(1,0,0,1,0,0)"><g id="svga-group-glasses-single"></g></g></g></g></g><rect id="svga-credit-rect" width="200" height="15" x="0" y="185" fill="#ecf0f1" opacity="0.5" style="display: none;"></rect><text id="svga-credit-text" font-family="Avenir Next, Roboto, Helvetica, Arial, sans-serif" font-size="10px" text-anchor="start" font-weight="400" size="10px" anchor="start" weight="400" fill="#333333" x="33.311859130859375" y="182.60824728012085" style="display: none;"><tspan id="SvgjsTspan7006" dy="13" x="33.311859130859375">Created on AvatarMaker.com</tspan></text></g><defs id="SvgjsDefs6958"><linearGradient id="SvgjsLinearGradient11271" x1="80.8496" y1="88.027" x2="80.8496" y2="115.008" gradientUnits="userSpaceOnUse" class="svga-on-canvas-glasses-gradient-single-0-null"><stop id="SvgjsStop11272" stop-opacity="1" stop-color="#ff73b2" offset="0.004166667" ></stop><stop id="SvgjsStop11273" stop-opacity="0.8296" stop-color="#ff76aa" offset="0.1739" ></stop><stop id="SvgjsStop11274" stop-opacity="0.5716" stop-color="#ff7d96" offset="0.4308" ></stop><stop id="SvgjsStop11275" stop-opacity="0.2598" stop-color="#ff8874" offset="0.7413" ></stop><stop id="SvgjsStop11276" stop-opacity="0" stop-color="#ff9452" offset="1" ></stop></linearGradient><linearGradient id="SvgjsLinearGradient11278" x1="-21.1504" y1="88.027" x2="-21.1504" y2="115.008" gradientTransform="matrix(-1 0 0 1 98 0)" gradientUnits="userSpaceOnUse" class="svga-on-canvas-glasses-gradient-single-1-null"><stop id="SvgjsStop11279" stop-opacity="1" stop-color="#ff73b2" offset="0.004166667" ></stop><stop id="SvgjsStop11280" stop-opacity="0.8296" stop-color="#ff76aa" offset="0.1739" ></stop><stop id="SvgjsStop11281" stop-opacity="0.5716" stop-color="#ff7d96" offset="0.4308" ></stop><stop id="SvgjsStop11282" stop-opacity="0.2598" stop-color="#ff8874" offset="0.7413" ></stop><stop id="SvgjsStop11283" stop-opacity="0" stop-color="#ff9452" offset="1" ></stop></linearGradient></defs></svg>