<!--?xml version="1.0" encoding="utf-8"?-->
<!-- Svg Vector Icons : http://www.onlinewebfonts.com/icon -->

<svg version="1.1" xmlns="http://www.w3.org/2000/svg" xmlns:xlink="http://www.w3.org/1999/xlink" x="0px" y="0px" viewBox="0 0 256 256" enable-background="new 0 0 256 256" xml:space="preserve">
<metadata> Svg Vector Icons : http://www.onlinewebfonts.com/icon </metadata>
<g><g><path fill="#01bfff" data-title="Layer 0" xs="0" d="M128,10C62.8,10,10,62.8,10,128c0,65.2,52.8,118,118,118c65.2,0,118-52.8,118-118C246,62.8,193.2,10,128,10z M199.9,130.4l-56.7,51.5c-0.2,0.2-0.4,0.3-0.6,0.5c-0.3,0.3-0.6,0.5-0.9,0.7c0,0,0,0,0,0l0,0c-0.8,0.5-1.7,0.9-2.7,0.9c-2.8,0-5.1-2.3-5.1-5.1V144c-0.3,0-0.6,0.1-0.9,0.1H67c-5.7,0-10.3-4.6-10.3-10.3v-19.7c0-5.7,4.6-10.3,10.3-10.3h65.8c0.3,0,0.6,0,0.9,0.1V69.1c0-2.8,2.3-5.1,5.1-5.1c1.1,0,2,0.4,2.9,1v-0.1c0.5,0.3,1,0.7,1.5,1.1l56.7,51.5C203.4,121,203.4,126.8,199.9,130.4z"/></g></g>
</svg>