<!--?xml version="1.0" encoding="utf-8"?-->
<!-- Svg Vector Icons : http://www.onlinewebfonts.com/icon -->

<svg version="1.1" xmlns="http://www.w3.org/2000/svg" xmlns:xlink="http://www.w3.org/1999/xlink" x="0px" y="0px" viewBox="0 0 256 256" enable-background="new 0 0 256 256" xml:space="preserve">
<metadata> Svg Vector Icons : http://www.onlinewebfonts.com/icon </metadata>
<g><g><path fill="#626262" data-title="Layer 0" xs="0" d="M128,10C62.8,10,10,62.8,10,128c0,65.2,52.8,118,118,118c65.2,0,118-52.8,118-118C246,62.8,193.2,10,128,10z M179.6,177.7c-13.8,13.8-32.1,21.4-51.6,21.4c-19.5,0-37.8-7.6-51.6-21.4c-13.8-13.8-21.4-32.1-21.4-51.6c0-19.5,7.6-37.8,21.4-51.6c13.8-13.8,32.1-21.4,51.6-21.4V35.7l36.5,29.5L128,94.8V73.5c-29,0-52.7,23.6-52.7,52.7c0,29,23.6,52.7,52.7,52.7c29,0,52.7-23.6,52.7-52.7H201C200.9,145.7,193.3,164,179.6,177.7L179.6,177.7z"/></g></g>
</svg>